<svg width="280" height="58" viewBox="0 0 280 58" fill="none" xmlns="http://www.w3.org/2000/svg">
<path d="M86.88 0.613037V1.10107V1.58911H87.414H87.948V1.10107V0.613037H87.414H86.88Z" fill="#FDCE54"/>
<path d="M87.948 0.613037H88.483V0.125977H87.948V0.613037Z" fill="#FDCE54"/>
<path d="M86.3459 0.125977V0.613037H86.88V0.125977H86.3459Z" fill="#FDCE54"/>
<path d="M258 54H269V51H258V54Z" fill="#AF3E48"/>
<path d="M11 54H23V51H11V54Z" fill="#70362E"/>
<path d="M258 7H269V5H258V7Z" fill="#51302B"/>
<path d="M258 6.99194V4.66089H246.401H235.2H224.001H212.802H201.601H190.401H179.201H168.001H156.8H145.6H134.401H123.201H112.001H100.801H89.6H78.4H67.201H56H44.8L33 4.66089V6.99194V9H22.4L22.4 11.6531V13.9839V16.3149V18.645V20.9761V23.3069V25.6389V27.968V30.2991V32.6311V34.96V37.2939V39.623V41.9541V44.283V46.615V48.946H33V51.2759V53.606V56H44.8H56H67.201H78.4H89.6H100.801H112.001H123.201H134.401H145.6H156.8H168.001H179.201H190.401H201.601H212.802H224.001H235.2H246.401H258V53.606V51H269V48.946V46.615V44.283V41.9541V39.623V37.2939V34.96V32.6311V30.2991V27.968V25.6389V23.3069V20.9761V18.645V16.3149V13.9839V11.6531V9.323V6.99194H258Z" fill="#FBBB44"/>
<path d="M246.401 2H235.2H224.001H212.802H201.601H190.401H179.201H168.001H156.8H145.6H134.401H123.201H112.001H100.801H89.5999H78.4H67.201H56H44.8H33.5999H23V4.66089V6.99194H11V9.323V11.6531V13.9839V16.3149V18.645V20.9761V23.3069V25.6389V27.968V30.2991V32.6311V34.96V37.2939V39.623V41.9541V44.283V46.615V48.946V51H23V53.606V55.938H33V53.606V51.2759V48.946H23V46.615V44.283V41.9541V39.623V37.2939V34.96V32.6311V30.2991V27.968V25.6389V23.3069V20.9761V18.645V16.3149V13.9839V11.6531V9.323H33.5999V6.99194V4.66089H44.8H56H67.201H78.4H89.5999H100.801H112.001H123.201H134.401H145.6H156.8H168.001H179.201H190.401H201.601H212.802H224.001H235.2H246.401H258V2H246.401Z" fill="#F27D43"/>
<path d="M11 5H23V2H11V5Z" fill="#53322B"/>
<path d="M235.523 56H224.286H213.049H201.81H190.572H179.334H168.096H156.857H145.619H134.381H123.143H111.905H100.667H89.4283H78.1902H66.9532H55.7141H44.4761H33.238H22V58H33.238H44.4761H55.7141H66.9532H78.1902H89.4283H100.667H111.905H123.143H134.381H145.619H156.857H168.096H179.334H190.572H201.81H213.049H224.286H235.523H246.762H258V56H246.762H235.523Z" fill="#4C2E2B"/>
<path d="M258 56H269V54H258V56Z" fill="#4C2E2B"/>
<path d="M11 54V56H23V54H11Z" fill="#4C2E2B"/>
<path d="M11 46.6873V44.3735V42.063V39.7502V37.4394V35.1238V32.8132V30.4995V28.1868V25.876V23.5623V21.2498V18.937V16.6252V14.3125V12H0V14.3125V16.6252V18.937V21.2498V23.5623V25.876V28.1868V30.4995V32.8132V35.1238V37.4394V39.7502V42.063V44.3735V46.6873V49H11V46.6873Z" fill="#4C2E2B"/>
<path d="M269 9V11.3522V13.7052V16.0585V18.4107V20.7639V23.1169V25.4711V27.8224V30.1756V32.5298V34.8809V37.237V39.5883V41.9415V44.2926V46.6468V49H280V46.6468V44.2926V41.9415V39.5883V37.237V34.8809V32.5298V30.1756V27.8224V25.4711V23.1169V20.7639V18.4107V16.0585V13.7052V11.3522V9H269Z" fill="#4C2E2B"/>
<path d="M23 5H11V7H23V5Z" fill="#4C2E2B"/>
<path d="M269 5V2H258V5H269Z" fill="#4C2E2B"/>
<path d="M45.3809 2H56.5713H67.7627H78.9521H90.1426H101.334H112.524H123.715H134.905H146.095H157.285H168.477H179.667H190.857H202.048H213.239H224.429H235.618H246.81H258V0H246.81H235.618H224.429H213.239H202.048H190.857H179.667H168.477H157.285H146.095H134.905H123.715H112.524H101.334H90.1426H78.9521H67.7627H56.5713H45.3809H34.1904H23V2H34.1904H45.3809Z" fill="#4C2E2B"/>
</svg>
