<svg width="440" height="58" viewBox="0 0 440 58" fill="none" xmlns="http://www.w3.org/2000/svg">
<path d="M166.881 0.613037V1.10107V1.58911H167.415H167.949V1.10107V0.613037H167.415H166.881Z" fill="#FDCE54"/>
<path d="M167.947 0.613037H168.482V0.125977H167.947V0.613037Z" fill="#FDCE54"/>
<path d="M166.346 0.125977V0.613037H166.88V0.125977H166.346Z" fill="#FDCE54"/>
<path d="M418 54H429V51H418V54Z" fill="#B27B63"/>
<path d="M11 54H23V51H11V54Z" fill="#B27B63"/>
<path d="M418 7H429V5H418V7Z" fill="#B27B63"/>
<path d="M418 6.99194V4.66089H326.401H315.2H304.001H292.802H281.601H270.401H259.201H248.001H236.8H225.6H214.401H203.201H192.001H180.801H169.6H158.4H147.201H136H124.8L33.0004 4.66089V6.99194V9H22.4004V11.6531V13.9839V16.3149V18.645V20.9761V23.3069V25.6389V27.968V30.2991V32.6311V34.96V37.2939V39.623V41.9541V44.283V46.615V48.946H33.0004V51.2759V53.606V56H124.8H136H147.201H158.4H169.6H180.801H192.001H203.201H214.401H225.6H236.8H248.001H259.201H270.401H281.601H292.802H304.001H315.2H326.401H418V53.606V51H429V48.946V46.615V44.283V41.9541V39.623V37.2939V34.96V32.6311V30.2991V27.968V25.6389V23.3069V20.9761V18.645V16.3149V13.9839V11.6531V9.323V6.99194H418Z" fill="white"/>
<path d="M406.401 2H395.2H384.001H372.802H361.601H270.401H259.201H248.001H236.8H225.6H214.401H203.201H192.001H180.801H169.6H158.4H67.201H56H44.8H33.5999H23V4.66089V6.99194H11V9.323V11.6531V13.9839V16.3149V18.645V20.9761V23.3069V25.6389V27.968V30.2991V32.6311V34.96V37.2939V39.623V41.9541V44.283V46.615V48.946V51H23V53.606V55.938H33V53.606V51.2759V48.946H23V46.615V44.283V41.9541V39.623V37.2939V34.96V32.6311V30.2991V27.968V25.6389V23.3069V20.9761V18.645V16.3149V13.9839V11.6531V9.323H33.5999V6.99194V4.66089H44.8H56H67.201H158.4H169.6H180.801H192.001H203.201H214.401H225.6H236.8H248.001H259.201H270.401H361.601H372.802H384.001H395.2H406.401H418V2H406.401Z" fill="#D3D3D3"/>
<path d="M11 5H23V2H11V5Z" fill="#B27B63"/>
<path d="M315.523 56H304.286H293.049H281.81H270.572H259.334H248.096H236.857H225.618H214.381H203.143H191.905H180.667H169.428H158.19H146.953H135.714H124.476H33.238H22V58H33.238H124.476H135.714H146.953H158.19H169.428H180.667H191.905H203.143H214.381H225.618H236.857H248.096H259.334H270.572H281.81H293.049H304.286H315.523H326.762H418V56H326.762H315.523Z" fill="#B27B63"/>
<path d="M418 56H429V54H418V56Z" fill="#B27B63"/>
<path d="M11 54V56H23V54H11Z" fill="#B27B63"/>
<path d="M11 46.6873V44.3735V42.063V39.7502V37.4394V35.1238V32.8132V30.4995V28.1868V25.876V23.5623V21.2498V18.937V16.6252V14.3125V12H0V14.3125V16.6252V18.937V21.2498V23.5623V25.876V28.1868V30.4995V32.8132V35.1238V37.4394V39.7502V42.063V44.3735V46.6873V49H11V46.6873Z" fill="#B27B63"/>
<path d="M429 9V11.3522V13.7052V16.0585V18.4107V20.7639V23.1169V25.4711V27.8224V30.1756V32.5298V34.8809V37.237V39.5883V41.9415V44.2926V46.6468V49H440V46.6468V44.2926V41.9415V39.5883V37.237V34.8809V32.5298V30.1756V27.8224V25.4711V23.1169V20.7639V18.4107V16.0585V13.7052V11.3522V9H429Z" fill="#B27B63"/>
<path d="M23 5H11V7H23V5Z" fill="#B27B63"/>
<path d="M429 5V2H418V5H429Z" fill="#B27B63"/>
<path d="M125.381 2H136.571H147.763H158.952H170.143H181.334H192.524H203.715H214.905H226.095H237.285H248.477H259.667H270.857H282.048H293.239H304.429H315.618H326.81H418V0H326.81H315.618H304.429H293.239H282.048H270.857H259.667H248.477H237.285H226.095H214.905H203.715H192.524H181.334H170.143H158.952H147.763H136.571H125.381H34.1904H23V2H34.1904H125.381Z" fill="#B27B63"/>
</svg>
